<svg width="24" height="24" version="1.1" viewBox="0 0 700 700" xmlns="http://www.w3.org/2000/svg">
                <path d="m227.5 122.5c0-32.488 12.906-63.648 35.879-86.621s54.133-35.879 86.621-35.879 63.648 12.906 86.621 35.879 35.879 54.133 35.879 86.621-12.906 63.648-35.879 86.621-54.133 35.879-86.621 35.879c-32.477-0.039062-63.613-12.957-86.578-35.922s-35.883-54.102-35.922-86.578zm349.14 345.65c-9.2656-53.176-37.16-101.32-78.691-135.79s-93.98-53.039-147.95-52.359c-53.973-0.67969-106.42 17.883-147.95 52.359s-69.426 82.617-78.691 135.79c-3.3086 22.617 3.4062 45.555 18.387 62.82 16.137 18.559 39.562 29.16 64.156 29.027h288.2c24.594 0.13281 48.02-10.469 64.156-29.027 14.98-17.266 21.695-40.203 18.387-62.82z"></path>
              </svg>