<svg width="24" height="24" version="1.1" viewBox="0 0 700 700" xmlns="http://www.w3.org/2000/svg">
              <path d="m619.68 500.32-108.5-108.5c37.102-49.582 54.047-111.38 47.418-172.95-6.625-61.574-36.332-118.35-83.137-158.9-46.809-40.551-107.24-61.867-169.12-59.652-61.891 2.2109-120.64 27.789-164.43 71.578-43.789 43.789-69.367 102.54-71.578 164.43-2.2148 61.887 19.102 122.32 59.652 169.12 40.551 46.805 97.324 76.512 158.9 83.137 61.574 6.6289 123.37-10.316 172.95-47.418l108.5 108.5c8.8164 8.8164 21.664 12.258 33.707 9.0312 12.043-3.2266 21.449-12.633 24.676-24.676 3.2266-12.043-0.21484-24.891-9.0312-33.707zm-304.68-80.324c-46.414 0-90.926-18.438-123.74-51.258-32.82-32.816-51.258-77.328-51.258-123.74s18.438-90.926 51.258-123.74c32.816-32.82 77.328-51.258 123.74-51.258s90.926 18.438 123.74 51.258c32.82 32.816 51.258 77.328 51.258 123.74-0.078125 46.391-18.539 90.855-51.34 123.66-32.805 32.801-77.27 51.262-123.66 51.34z"></path>
            </svg>